<svg width="47" height="67" viewBox="0 0 47 67" fill="none" xmlns="http://www.w3.org/2000/svg">
<path d="M40 0H6.66667C3 0 0 3 0 6.66667V60C0 63.6667 3 66.6333 6.66667 66.6333L40 66.6667C43.6667 66.6667 46.6667 63.6667 46.6667 60V6.66667C46.6667 3 43.6667 0 40 0ZM23.3333 6.66667C27 6.66667 30 9.66667 30 13.3333C30 17 27 20 23.3333 20C21.5652 20 19.8695 19.2976 18.6193 18.0474C17.369 16.7971 16.6667 15.1014 16.6667 13.3333C16.6667 11.5652 17.369 9.86953 18.6193 8.61929C19.8695 7.36905 21.5652 6.66667 23.3333 6.66667ZM23.3333 60C14.1333 60 6.66667 52.5333 6.66667 43.3333C6.66667 34.1333 14.1333 26.6667 23.3333 26.6667C32.5333 26.6667 40 34.1333 40 43.3333C40 52.5333 32.5333 60 23.3333 60ZM23.3333 33.3333C17.8 33.3333 13.3333 37.8 13.3333 43.3333C13.3333 48.8667 17.8 53.3333 23.3333 53.3333C28.8667 53.3333 33.3333 48.8667 33.3333 43.3333C33.3333 37.8 28.8667 33.3333 23.3333 33.3333Z" fill="black"/>
</svg>
