<svg width="70" height="75" viewBox="0 0 70 75" fill="none" xmlns="http://www.w3.org/2000/svg">
<path d="M29.7133 5.03041C30.1552 6.28047 30.0824 7.65484 29.5111 8.85128C28.9398 10.0477 27.9166 10.9682 26.6667 11.4104C22.3459 12.938 18.5281 15.624 15.6307 19.1747C12.7332 22.7254 10.8675 27.0042 10.2374 31.5436C9.60733 36.0829 10.2372 40.7082 12.0581 44.9138C13.879 49.1194 16.8209 52.7436 20.5623 55.3902C24.3037 58.0369 28.7006 59.6042 33.2725 59.9209C37.8444 60.2376 42.4155 59.2914 46.486 57.1859C50.5566 55.0803 53.97 51.8963 56.3534 47.9819C58.7367 44.0675 59.9982 39.5733 60 34.9904C60 30.9904 59.0667 27.2237 57.4033 23.8837C57.1109 23.2956 56.9372 22.6557 56.8921 22.0005C56.847 21.3452 56.9314 20.6875 57.1405 20.0649C57.5628 18.8075 58.4673 17.7693 59.655 17.1787C60.8427 16.5882 62.2164 16.4937 63.4738 16.9159C64.7313 17.3382 65.7695 18.2427 66.36 19.4304C68.7616 24.2653 70.0076 29.5919 70 34.9904C70 54.3204 54.33 69.9904 35 69.9904C15.67 69.9904 0 54.3204 0 34.9904C0 19.7437 9.74667 6.78708 23.3333 1.98374C24.5834 1.5419 25.9578 1.61465 27.1542 2.18599C28.3506 2.75732 29.2712 3.78047 29.7133 5.03041ZM36.6667 5.03708C36.6661 4.27656 36.8379 3.5258 37.1691 2.8412C37.5003 2.15659 37.9824 1.55595 38.5791 1.08439C39.1757 0.612824 39.8715 0.282603 40.6141 0.118529C41.3567 -0.0455441 42.1269 -0.0392028 42.8667 0.137077L43.2933 0.26041L53.2467 3.58041C54.4654 3.98653 55.481 4.84613 56.083 5.98095C56.6849 7.11577 56.827 8.43875 56.4798 9.67552C56.1326 10.9123 55.3226 11.968 54.218 12.6236C53.1133 13.2793 51.7987 13.4846 50.5467 13.1971L50.0867 13.0671L46.6667 11.9271V34.9904L46.65 35.6304C46.5223 37.9547 45.7022 40.1876 44.2952 42.042C42.8882 43.8964 40.9587 45.2876 38.7547 46.0365C36.5507 46.7855 34.1731 46.858 31.9275 46.2448C29.682 45.6316 27.6712 44.3607 26.1538 42.5955C24.6364 40.8303 23.6817 38.6515 23.4125 36.3394C23.1433 34.0272 23.572 31.6874 24.6433 29.6209C25.7146 27.5543 27.3796 25.8554 29.4242 24.7427C31.4689 23.6301 33.7996 23.1545 36.1167 23.3771L36.6667 23.4437V5.03708Z" fill="black"/>
</svg>
